<mxfile host="app.diagrams.net" modified="2023-02-27T01:15:55.523Z" agent="5.0 (Macintosh; Intel Mac OS X 10_15_7) AppleWebKit/537.36 (KHTML, like Gecko) Chrome/110.0.0.0 Safari/537.36" etag="PsAAmZAPHOxakAXuNKYt" version="20.8.15" type="github">
  <diagram name="ページ1" id="Jqa1Tx-s0KO5ZwJz1B_P">
    <mxGraphModel dx="1592" dy="1931" grid="1" gridSize="10" guides="1" tooltips="1" connect="1" arrows="1" fold="1" page="1" pageScale="1" pageWidth="850" pageHeight="1100" math="0" shadow="0">
      <root>
        <mxCell id="0" />
        <mxCell id="1" parent="0" />
        <mxCell id="-V-a0cZUHH01xrUINYRx-1" value="モダンアーキテクチャ&lt;br&gt;ユースケース別&lt;br&gt;デザインパターン" style="rounded=1;whiteSpace=wrap;html=1;" vertex="1" parent="1">
          <mxGeometry x="80" y="120" width="160" height="60" as="geometry" />
        </mxCell>
        <mxCell id="-V-a0cZUHH01xrUINYRx-2" value="社内Qiita" style="rounded=1;whiteSpace=wrap;html=1;" vertex="1" parent="1">
          <mxGeometry x="280" y="120" width="160" height="60" as="geometry" />
        </mxCell>
        <mxCell id="-V-a0cZUHH01xrUINYRx-3" value="エンジニアリングの&lt;br&gt;効率化" style="rounded=1;whiteSpace=wrap;html=1;" vertex="1" parent="1">
          <mxGeometry x="80" y="200" width="160" height="60" as="geometry" />
        </mxCell>
        <mxCell id="-V-a0cZUHH01xrUINYRx-4" value="PHD全体のソース管理" style="rounded=1;whiteSpace=wrap;html=1;" vertex="1" parent="1">
          <mxGeometry x="280" y="200" width="160" height="60" as="geometry" />
        </mxCell>
        <mxCell id="-V-a0cZUHH01xrUINYRx-5" value="ナレッジ共有" style="swimlane;whiteSpace=wrap;html=1;" vertex="1" parent="1">
          <mxGeometry x="40" y="80" width="440" height="200" as="geometry" />
        </mxCell>
        <mxCell id="-V-a0cZUHH01xrUINYRx-7" value="ツール工場の作成" style="rounded=1;whiteSpace=wrap;html=1;" vertex="1" parent="1">
          <mxGeometry x="80" y="320" width="160" height="60" as="geometry" />
        </mxCell>
        <mxCell id="-V-a0cZUHH01xrUINYRx-8" value="エンジニアリングを&lt;br&gt;牽引していく存在" style="rounded=1;whiteSpace=wrap;html=1;" vertex="1" parent="1">
          <mxGeometry x="40" y="-20" width="160" height="60" as="geometry" />
        </mxCell>
        <mxCell id="-V-a0cZUHH01xrUINYRx-9" value="ITルールの緩和" style="rounded=1;whiteSpace=wrap;html=1;" vertex="1" parent="1">
          <mxGeometry x="670" y="30" width="160" height="60" as="geometry" />
        </mxCell>
        <mxCell id="-V-a0cZUHH01xrUINYRx-10" value="&lt;b&gt;SaaS&lt;/b&gt; &amp;gt; 実装" style="rounded=1;whiteSpace=wrap;html=1;" vertex="1" parent="1">
          <mxGeometry x="670" y="100" width="160" height="60" as="geometry" />
        </mxCell>
      </root>
    </mxGraphModel>
  </diagram>
</mxfile>
